<svg xmlns="http://www.w3.org/2000/svg" width="1280" height="760" viewBox="0 0 1280 760">
  <rect width="1280" height="760" fill="#f6f7f9"/>
  <rect width="1280" height="64" fill="#0f172a"/>
  <rect x="28" y="15" width="34" height="34" rx="8" fill="#2563eb"/>
  <text x="40" y="37" font-family="Inter, Arial, sans-serif" font-size="15" font-weight="800" fill="#fff">KV</text>
  <text x="76" y="38" font-family="Inter, Arial, sans-serif" font-size="18" font-weight="700" fill="#fff">TinyKV Dashboard</text>
  <rect x="1124" y="18" width="128" height="28" rx="14" fill="none" stroke="#334155"/>
  <text x="1154" y="37" font-family="Inter, Arial, sans-serif" font-size="12" fill="#dbeafe">6/6 online</text>

  <rect x="24" y="88" width="756" height="338" rx="8" fill="#fff" stroke="#d9dee7"/>
  <line x1="24" y1="140" x2="780" y2="140" stroke="#d9dee7"/>
  <text x="52" y="120" font-family="Inter, Arial, sans-serif" font-size="15" font-weight="700" fill="#17202a">节点状态</text>
  <rect x="648" y="102" width="94" height="28" rx="6" fill="#fff" stroke="#d9dee7"/>
  <text x="682" y="121" font-family="Inter, Arial, sans-serif" font-size="12" font-weight="700" fill="#17202a">刷新</text>

  <g font-family="Inter, Arial, sans-serif">
    <g transform="translate(44 160)">
      <rect width="222" height="238" rx="8" fill="#fbfcfe" stroke="#d9dee7"/>
      <circle cx="198" cy="22" r="5" fill="#0f9f6e"/>
      <text x="14" y="27" font-size="14" font-weight="700" fill="#17202a">node-1</text>
      <text x="14" y="51" font-size="12" fill="#667085">127.0.0.1:19021</text>
      <rect x="14" y="68" width="58" height="23" rx="12" fill="#dcfce7"/>
      <text x="25" y="84" font-size="12" font-weight="700" fill="#166534">leader</text>
      <text x="14" y="116" font-size="11" fill="#667085">term / leader</text>
      <text x="14" y="134" font-size="13" font-weight="700" fill="#17202a">8 / node-1</text>
      <text x="118" y="116" font-size="11" fill="#667085">commit / apply</text>
      <text x="118" y="134" font-size="13" font-weight="700" fill="#17202a">42 / 42</text>
      <text x="14" y="166" font-size="11" fill="#667085">QPS</text>
      <text x="14" y="184" font-size="13" font-weight="700" fill="#17202a">1280</text>
      <text x="118" y="166" font-size="11" fill="#667085">p95 / p99 us</text>
      <text x="118" y="184" font-size="13" font-weight="700" fill="#17202a">820 / 1410</text>
      <rect x="14" y="204" width="88" height="26" rx="6" fill="#0f9f6e"/>
      <text x="43" y="222" font-size="12" font-weight="700" fill="#fff">启动</text>
      <rect x="118" y="204" width="88" height="26" rx="6" fill="#dc2626"/>
      <text x="147" y="222" font-size="12" font-weight="700" fill="#fff">停止</text>
    </g>

    <g transform="translate(286 160)">
      <rect width="222" height="238" rx="8" fill="#fbfcfe" stroke="#d9dee7"/>
      <circle cx="198" cy="22" r="5" fill="#0f9f6e"/>
      <text x="14" y="27" font-size="14" font-weight="700" fill="#17202a">node-2</text>
      <text x="14" y="51" font-size="12" fill="#667085">127.0.0.1:19022</text>
      <rect x="14" y="68" width="70" height="23" rx="12" fill="#e0f2fe"/>
      <text x="26" y="84" font-size="12" font-weight="700" fill="#075985">follower</text>
      <text x="14" y="116" font-size="11" fill="#667085">term / leader</text>
      <text x="14" y="134" font-size="13" font-weight="700" fill="#17202a">8 / node-1</text>
      <text x="118" y="116" font-size="11" fill="#667085">commit / apply</text>
      <text x="118" y="134" font-size="13" font-weight="700" fill="#17202a">42 / 42</text>
      <text x="14" y="166" font-size="11" fill="#667085">log / alive</text>
      <text x="14" y="184" font-size="13" font-weight="700" fill="#17202a">42 / 5</text>
      <text x="118" y="166" font-size="11" fill="#667085">elect / repl fail</text>
      <text x="118" y="184" font-size="13" font-weight="700" fill="#17202a">1 / 0</text>
      <rect x="14" y="204" width="88" height="26" rx="6" fill="#0f9f6e"/>
      <text x="43" y="222" font-size="12" font-weight="700" fill="#fff">启动</text>
      <rect x="118" y="204" width="88" height="26" rx="6" fill="#dc2626"/>
      <text x="147" y="222" font-size="12" font-weight="700" fill="#fff">停止</text>
    </g>

    <g transform="translate(528 160)">
      <rect width="222" height="238" rx="8" fill="#fbfcfe" stroke="#d9dee7"/>
      <circle cx="198" cy="22" r="5" fill="#0f9f6e"/>
      <text x="14" y="27" font-size="14" font-weight="700" fill="#17202a">node-3</text>
      <text x="14" y="51" font-size="12" fill="#667085">127.0.0.1:19023</text>
      <rect x="14" y="68" width="70" height="23" rx="12" fill="#e0f2fe"/>
      <text x="26" y="84" font-size="12" font-weight="700" fill="#075985">follower</text>
      <text x="14" y="116" font-size="11" fill="#667085">term / leader</text>
      <text x="14" y="134" font-size="13" font-weight="700" fill="#17202a">8 / node-1</text>
      <text x="118" y="116" font-size="11" fill="#667085">commit / apply</text>
      <text x="118" y="134" font-size="13" font-weight="700" fill="#17202a">42 / 42</text>
      <text x="14" y="166" font-size="11" fill="#667085">log / alive</text>
      <text x="14" y="184" font-size="13" font-weight="700" fill="#17202a">42 / 5</text>
      <text x="118" y="166" font-size="11" fill="#667085">elect / repl fail</text>
      <text x="118" y="184" font-size="13" font-weight="700" fill="#17202a">1 / 0</text>
      <rect x="14" y="204" width="88" height="26" rx="6" fill="#0f9f6e"/>
      <text x="43" y="222" font-size="12" font-weight="700" fill="#fff">启动</text>
      <rect x="118" y="204" width="88" height="26" rx="6" fill="#dc2626"/>
      <text x="147" y="222" font-size="12" font-weight="700" fill="#fff">停止</text>
    </g>
  </g>

  <rect x="804" y="88" width="452" height="338" rx="8" fill="#fff" stroke="#d9dee7"/>
  <line x1="804" y1="140" x2="1256" y2="140" stroke="#d9dee7"/>
  <text x="832" y="120" font-family="Inter, Arial, sans-serif" font-size="15" font-weight="700" fill="#17202a">压测</text>
  <rect x="832" y="166" width="92" height="78" rx="8" fill="#fbfcfe" stroke="#d9dee7"/>
  <rect x="944" y="166" width="92" height="78" rx="8" fill="#fbfcfe" stroke="#d9dee7"/>
  <rect x="1056" y="166" width="92" height="78" rx="8" fill="#fbfcfe" stroke="#d9dee7"/>
  <rect x="1168" y="166" width="60" height="78" rx="8" fill="#fbfcfe" stroke="#d9dee7"/>
  <text x="852" y="194" font-family="Inter, Arial, sans-serif" font-size="12" fill="#667085">QPS</text>
  <text x="852" y="224" font-family="Inter, Arial, sans-serif" font-size="24" font-weight="750" fill="#17202a">1280</text>
  <text x="964" y="194" font-family="Inter, Arial, sans-serif" font-size="12" fill="#667085">AVG us</text>
  <text x="964" y="224" font-family="Inter, Arial, sans-serif" font-size="24" font-weight="750" fill="#17202a">410</text>
  <text x="1076" y="194" font-family="Inter, Arial, sans-serif" font-size="12" fill="#667085">P95 us</text>
  <text x="1076" y="224" font-family="Inter, Arial, sans-serif" font-size="24" font-weight="750" fill="#17202a">820</text>
  <text x="1186" y="194" font-family="Inter, Arial, sans-serif" font-size="12" fill="#667085">失败</text>
  <text x="1186" y="224" font-family="Inter, Arial, sans-serif" font-size="24" font-weight="750" fill="#17202a">0</text>

  <rect x="24" y="450" width="1232" height="250" rx="8" fill="#fff" stroke="#d9dee7"/>
  <line x1="24" y1="502" x2="1256" y2="502" stroke="#d9dee7"/>
  <text x="52" y="482" font-family="Inter, Arial, sans-serif" font-size="15" font-weight="700" fill="#17202a">KV 操作</text>
  <rect x="52" y="530" width="1176" height="134" rx="8" fill="#111827"/>
  <text x="76" y="566" font-family="Menlo, Consolas, monospace" font-size="14" fill="#d1fae5">[12:00:01] :19021 SET user:1 alice -&gt; OK</text>
  <text x="76" y="596" font-family="Menlo, Consolas, monospace" font-size="14" fill="#d1fae5">[12:00:02] :19022 GET user:1 -&gt; "alice"</text>
  <text x="76" y="626" font-family="Menlo, Consolas, monospace" font-size="14" fill="#d1fae5">[12:00:03] METRICS -&gt; role=leader term=8 commit=42 p95=820us</text>
</svg>
